<?xml version="1.0" encoding="utf-8"?>
<svg xmlns="http://www.w3.org/2000/svg" viewBox="0 0 500 500">
  <path style="fill: rgb(22, 27, 33); fill-rule: nonzero; stroke: rgb(22, 27, 33);" d="M 136.51 309.57 C 136.51 309.57 136.51 304.851 131.575 303.992 C 126.641 303.133 81.158 304.207 81.158 304.207 C 81.158 304.207 76.652 303.563 76.008 308.283 C 75.364 313.003 68.775 401.086 140.077 456.043 C 211.378 511 285.22 489.862 330.03 464.498 C 374.842 439.132 400.85 386.635 404.402 348.004 C 407.954 309.373 407.666 14.411 407.666 14.411 C 407.666 14.411 407.54 0.948 396.198 7.341 C 384.855 13.735 340.719 51.062 340.719 50.856 C 340.719 50.652 338.658 53.537 339.275 56.63 C 339.895 59.722 338.201 335.111 338.201 335.111 C 338.201 335.111 327.293 405.922 260.987 419.417 C 194.681 432.912 147.739 383.625 141.285 350.765 C 134.83 317.906 136.59 310.863 136.51 309.57">
    <title>j_out</title>
  </path>
  <path style="fill: rgb(3, 186, 135); stroke: rgb(3, 186, 135);" d="M 215.364 218.082 L 215.257 369.024 C 215.464 377.319 211.612 376.334 209.025 375.506 C 160.768 354.821 160.768 315.757 160.768 315.757 L 160.768 245.799 C 160.768 245.799 193.197 220.519 204.941 212.093 C 216.685 203.669 215.364 218.082 215.364 218.082 Z">
    <title>small_left</title>
  </path>
  <path style="fill: rgb(3, 186, 135); stroke: rgb(3, 186, 135);" d="M 295.23 140.769 C 295.23 140.769 295.28 128.375 285.994 134.693 C 276.71 141.01 240.304 170.177 240.304 170.177 L 240.304 371.893 C 240.304 371.893 238.603 377.726 249.054 375.539 C 259.504 373.352 296.201 346.617 295.471 315.023 C 294.742 283.43 295.23 141.012 295.23 140.769 Z">
    <title>small_right</title>
  </path>
</svg>